<svg width="80" height="80" fill="none" xmlns="http://www.w3.org/2000/svg">
    <path d="M69.135 67.095h9.55c1.754 0 1.754-2.52 0-2.52h-7.016V21.53c.584.194.974.194 1.364.388 1.559.388 2.338-2.133.78-2.52-5.652-1.552-11.109-3.103-16.566-4.654C55.298 14.163 52.96 13 51.011 13c-.975 0-1.949.582-2.728.97-1.365.581-2.924 1.357-4.483 1.938-2.728 1.164-5.456 2.327-8.185 3.684-1.559.582-.39 2.909 1.17 2.133.194-.194.584-.194.779-.388v7.756l-27.479 10.47c-1.364.582-2.728.97-4.092 1.551-1.56.582-.975 3.102.584 2.52.585-.193 1.17-.387 1.95-.775v21.522H1.314c-1.753 0-1.753 2.52 0 2.52H27.43c13.837.194 27.868.194 41.705.194zM52.765 55.85c-.195 0-.39-.194-.39-.388V47.9c0-.194.195-.388.39-.388h6.82v8.338h-6.82zm9.354-8.144h7.016v8.338H62.12v-8.338zm-9.354-8.143c-.195 0-.39-.194-.39-.388v-7.562c0-.193.195-.387.39-.387h6.82v8.337h-6.82zm9.354-8.143h7.016v8.337H62.12V31.42zM43.41 18.817c1.754-.582 3.314-1.358 4.873-1.94.78-.387 1.948-1.162 2.728-1.162.195 0 .974.387 1.17.387 1.169.388 2.338.776 3.507.97 3.508.97 6.821 1.939 10.33 2.908.974.194 1.948.582 2.922.776v7.95H52.765c-1.56 0-2.923 1.356-2.923 2.907v7.562c0 1.551 1.364 2.909 2.923 2.909h16.37v2.908h-16.37c-1.56 0-2.923 1.357-2.923 2.908v7.756c0 1.55 1.364 2.908 2.923 2.908h16.37v6.011H40.292V20.368c1.17-.582 2.144-.97 3.118-1.551zm-8.185 13.96c.78-.388 1.56-.582 2.534-.97v32.574H34.64V54.299c0-1.551-1.364-2.909-2.924-2.909H18.66c-1.559 0-2.923 1.358-2.923 2.909v10.276H11.06V42.083c8.185-3.102 16.175-6.204 24.165-9.306zM18.465 64.38V54.299c0-.194.195-.388.39-.388h12.862c.195 0 .39.194.39.388v10.276H18.465v-.194z" fill="#000"/>
    <path d="M25.09 47.708c2.338 0 4.287-1.939 4.287-4.266 0-2.326-1.95-4.265-4.288-4.265s-4.287 1.939-4.287 4.265c.195 2.327 1.949 4.266 4.287 4.266zm0-5.817c.779 0 1.558.776 1.558 1.551 0 .776-.78 1.551-1.559 1.551-.78 0-1.559-.775-1.559-1.55 0-.776.78-1.552 1.56-1.552z" fill="#000"/>
</svg>
