<svg width="80" height="80" fill="none" xmlns="http://www.w3.org/2000/svg">
    <g clip-path="url(#a)">
        <path d="M6.01 44.646v3.37c0 1.572 1.122 2.695 2.695 2.695h.449v8.761c0 2.022 2.92 2.022 2.92 0v-8.76h4.044v8.76c0 2.022 2.92 2.022 2.92 0v-8.76h.45c1.572 0 2.695-1.124 2.695-2.696v-3.37H31.618v3.37c0 1.572 1.123 2.695 2.695 2.695h.899v8.761c0 2.022 2.92 2.022 2.92 0v-8.76h4.044v8.76c0 2.022 2.92 2.022 2.92 0v-8.76h.45c1.572 0 2.695-1.124 2.695-2.696v-3.37h9.435v3.37c0 1.572 1.123 2.695 2.695 2.695h.45v8.761c0 2.022 2.92 2.022 2.92 0v-8.76h4.044v8.76c0 2.022 2.92 2.022 2.92 0v-8.76h.45c1.572 0 2.695-1.124 2.695-2.696v-3.37h4.493c2.021 0 2.021-2.92 0-2.92h-5.616C69.132 30.943 60.37 22.856 49.14 20.16c-10.334-2.696-21.79-.674-30.327 5.84-5.39 4.044-9.21 9.435-11.68 15.5H1.515c-2.021 0-2.021 2.92 0 2.92 1.573.225 2.92.225 4.493.225zm13.477 3.145H9.154v-2.92h10.333v2.92zm26.058 0H34.987v-2.92h10.558v2.92zm-19.768-6.065h-5.391v-13.03c1.572-1.347 3.594-2.47 5.391-3.369v16.399zm33.696 0h-5.391V25.103c1.797.898 3.819 2.021 5.39 3.145v13.478zm11.906 6.065H60.82v-2.92h10.558v2.92zm-1.348-6.065h-7.638V30.719c3.37 3.145 5.84 6.739 7.638 11.007zM51.16 23.755v17.97H45.77V22.408c1.797.225 3.594.674 5.391 1.348zm-8.536-1.573v19.544h-5.391V22.182a21.653 21.653 0 0 1 5.391 0zm-8.536.45v19.094h-5.391V23.979c1.123-.449 2.246-.674 3.37-1.123.673 0 1.347-.224 2.02-.224zm-16.848 8.76v10.334H10.502c1.572-3.819 3.819-7.413 6.739-10.334z" fill="#000"/>
    </g>
    <defs>
        <clipPath id="a">
            <path fill="#fff" transform="translate(0 19)" d="M0 0h80v42.667H0z"/>
        </clipPath>
    </defs>
</svg>
