<svg width="80" height="80" fill="none" xmlns="http://www.w3.org/2000/svg">
    <path d="M39.896 68.707c-12.145 0-24.08-4.166-27.43-5.208-.838-.416-1.466-1.25-1.466-2.083 0-.833.628-1.875 1.466-2.083 2.722-1.25 9.632-3.542 18.007-4.791l.21 1.874c-8.166 1.25-15.076 3.542-17.59 4.375-.209 0-.209.209-.209.417s.21.416.21.416c3.35 1.25 15.076 5.209 26.802 5.209 11.726 0 20.94-2.709 23.452-3.542v-4.166c-1.466-.417-5.654-1.667-11.307-2.5l.21-1.875c7.537 1.041 12.144 2.708 12.353 2.916l.629.209v6.874l-.629.209c-.418.208-10.679 3.75-24.708 3.75z" fill="#000" stroke="#000" stroke-width=".5"/>
    <path d="M28.8 62.248c0-1.25-.21-32.499 15.286-48.956v-.417L55.602 11l.419 1.875-10.889 1.666C30.476 30.582 30.686 61.831 30.686 62.04l-1.885.209z" fill="#000" stroke="#000" stroke-width=".5"/>
    <path d="m29.843 60.373-.21-1.875 19.683-2.291c1.675-.209 2.722-1.667 2.722-3.333 0-.625-1.256-15.208-.837-21.458.419-6.25 2.722-19.165 2.722-19.582l1.884.417c0 .208-2.512 13.332-2.722 19.374-.419 6.041.838 21.04.838 21.249 0 2.708-1.885 4.791-4.607 5.208l-19.473 2.291zM61.465 60.375h-1.884v1.875h1.884v-1.875zM57.692 60.375h-1.884v1.875h1.884v-1.875zM53.925 60.375H52.04v1.875h1.885v-1.875zM65.235 33.292h-10.26v1.875h10.26v-1.875zM69 33.292h-1.885v1.875H69v-1.875zM63.347 37.874h-6.491v1.875h6.49v-1.875zM67.118 37.874h-1.884v1.875h1.884v-1.875z" fill="#000" stroke="#000" stroke-width=".5"/>
    <path d="m35.71 48.29-1.675-.209c1.257-7.5 3.35-15.207 6.073-21.665l1.675.833C39.06 33.5 36.967 41 35.71 48.29zM35.29 52.042l-1.884-.209c0-.625.21-1.25.21-1.874l1.884.208c0 .625-.21 1.25-.21 1.875zM53.79 19.301l-8.324.92.208 1.864 8.324-.92-.208-1.864zM51.914 28.674l-8.324.92.208 1.864 8.324-.92-.208-1.864zM52.153 38.03l-11.267.933.156 1.868 11.267-.934-.156-1.868zM53.007 47.201l-13.998.927.125 1.87 13.998-.926-.125-1.87z" fill="#000" stroke="#000" stroke-width=".5"/>
</svg>
