<svg width="80" height="80" fill="none" xmlns="http://www.w3.org/2000/svg">
    <path d="M53.26 37.415h-7.18c-1.561 0-1.561 2.56 0 2.56h7.18c1.716 0 1.716-2.56 0-2.56zM53.26 43.015h-7.18c-1.561 0-1.561 2.559 0 2.559h7.18c1.716 0 1.716-2.56 0-2.56zM53.26 48.613h-7.18c-1.561 0-1.561 2.56 0 2.56h7.18c1.716 0 1.716-2.56 0-2.56zM53.26 54.531h-7.18c-1.561 0-1.561 2.56 0 2.56h7.18c1.716 0 1.716-2.56 0-2.56zM53.26 60.45h-7.18c-1.561 0-1.561 2.56 0 2.56h7.18c1.716 0 1.716-2.56 0-2.56z" fill="#000"/>
    <path d="M30.784 68.128H69.96c1.561 0 1.561-2.56 0-2.56h-9.989V35.496c0-2.08-1.717-3.84-3.746-3.84H43.74V22.7c0-1.44-.937-2.72-2.342-3.199l-19.666-6.398h-.156c-.937-.16-1.873 0-2.654.64-.78.64-1.248 1.6-1.248 2.559v49.587H9.556c-1.56 0-1.56 2.56 0 2.56 7.18-.32 14.204-.32 21.228-.32zm12.955-33.912h12.486c.624 0 1.249.48 1.249 1.28v30.072H43.739V34.216zm-23.413-7.198h14.36v1.12h-14.36v-1.12zm0 9.918h14.36v1.12h-14.36v-1.12zm0 10.077h14.36v1.12h-14.36v-1.12zm0 10.078h14.36v1.12h-14.36v-1.12zm0 8.317V60.77h14.36c1.404 0 2.497-1.12 2.497-2.559v-1.28c0-1.44-1.093-2.559-2.497-2.559h-14.36v-3.519h14.36c1.404 0 2.497-1.12 2.497-2.56v-1.279c0-1.44-1.093-2.56-2.497-2.56h-14.36v-3.678h14.36c1.404 0 2.497-1.12 2.497-2.56v-1.28c0-1.439-1.093-2.559-2.497-2.559h-14.36v-3.679h14.36c1.404 0 2.497-1.12 2.497-2.56v-1.279c0-1.44-1.093-2.56-2.497-2.56h-14.36v-8.157c0-.32.156-.48.312-.48s.313-.16.469-.16l19.666 6.558h.156c.312 0 .468.32.468.64V65.408H20.326z" fill="#000"/>
</svg>
