<?xml version="1.0" standalone="no"?>
<!DOCTYPE svg PUBLIC "-//W3C//DTD SVG 20010904//EN"
 "http://www.w3.org/TR/2001/REC-SVG-20010904/DTD/svg10.dtd">
<svg version="1.0" xmlns="http://www.w3.org/2000/svg"
 width="512.000000pt" height="512.000000pt" viewBox="0 0 512.000000 512.000000"
 preserveAspectRatio="xMidYMid meet">

<g transform="translate(0.000000,512.000000) scale(0.100000,-0.100000)"
fill="#000000" stroke="none">
<path d="M1525 3817 c-94 -31 -158 -88 -197 -172 -31 -68 -32 -180 -1 -246
112 -245 456 -245 566 1 29 64 29 178 0 242 -30 67 -94 132 -156 158 -63 27
-157 35 -212 17z"/>
<path d="M2475 3817 c-62 -21 -97 -42 -137 -84 -87 -89 -109 -233 -55 -345
112 -229 442 -229 554 0 37 75 38 181 4 258 -28 64 -91 126 -155 155 -61 26
-157 34 -211 16z"/>
<path d="M3425 3817 c-94 -31 -159 -89 -198 -176 -29 -63 -28 -178 0 -241 73
-163 257 -230 420 -154 105 50 168 151 167 274 0 128 -66 231 -178 281 -61 26
-157 34 -211 16z"/>
<path d="M2480 2857 c-139 -39 -224 -152 -224 -297 0 -88 22 -145 79 -208 117
-130 333 -130 450 0 57 63 79 120 79 208 0 88 -22 145 -79 208 -72 80 -203
118 -305 89z"/>
<path d="M2481 1895 c-143 -40 -225 -148 -225 -295 0 -91 25 -155 86 -217 60
-61 126 -87 218 -87 128 0 230 65 282 179 34 76 32 182 -5 257 -65 132 -217
201 -356 163z"/>
</g>
</svg>
